<?xml version="1.0" encoding="utf-8"?>
<!-- Generator: Adobe Illustrator 25.2.0, SVG Export Plug-In . SVG Version: 6.00 Build 0)  -->
<svg version="1.1" id="Layer_1" xmlns="http://www.w3.org/2000/svg" xmlns:xlink="http://www.w3.org/1999/xlink" x="0px" y="0px"
	 viewBox="0 0 492.57 116.44" style="enable-background:new 0 0 492.57 116.44;" xml:space="preserve">
<style type="text/css">
	.st0{fill:url(#SVGID_1_);}
	.st1{fill:url(#SVGID_2_);}
	.st2{fill:url(#SVGID_3_);}
	.st3{fill:#FFFFFF;}
	.st4{fill:#FDE159;}
	.st5{fill:#3DC66A;}
	.st6{fill:#99E873;}
	.st7{fill:#62CB76;}
	.st8{fill:#449582;}
	.st9{fill:#CB3935;}
	.st10{opacity:0.5;fill:#CB3935;}
	.st11{fill:#EA524E;}
	.st12{fill:#1A1A1A;}
	.st13{fill:#002046;}
	.st14{opacity:0.4;clip-path:url(#SVGID_5_);}
	.st15{fill:url(#SVGID_6_);}
	.st16{fill:url(#SVGID_7_);}
	.st17{fill:url(#SVGID_8_);}
	.st18{fill:url(#SVGID_9_);}
</style>
<g>
	<g>
		<g>
			<g>
				<polygon class="st3" points="75.14,41.66 70.11,41.66 70.11,23.54 91.07,23.54 91.07,28.57 75.14,28.57 				"/>
			</g>
			<g>
				<rect x="78.49" y="53.4" class="st3" width="19.27" height="5.03"/>
			</g>
			<g>
				<rect x="76.82" y="63.46" class="st3" width="16.77" height="5.03"/>
			</g>
			<g>
				<rect x="66.76" y="81.9" class="st3" width="24.31" height="5.03"/>
			</g>
			<g>
				<g>
					<circle class="st3" cx="91.91" cy="84.42" r="5.03"/>
				</g>
				<g>
					<path class="st4" d="M91.91,92.8c-4.62,0-8.38-3.76-8.38-8.38s3.76-8.38,8.38-8.38s8.38,3.76,8.38,8.38S96.53,92.8,91.91,92.8z
						 M91.91,82.74c-0.92,0-1.68,0.75-1.68,1.68c0,0.92,0.75,1.68,1.68,1.68c0.92,0,1.68-0.75,1.68-1.68
						C93.58,83.49,92.83,82.74,91.91,82.74z"/>
				</g>
			</g>
			<g>
				<g>
					<circle class="st3" cx="91.07" cy="26.57" r="5.03"/>
				</g>
				<g>
					<path class="st4" d="M91.07,34.95c-4.62,0-8.38-3.76-8.38-8.38s3.76-8.38,8.38-8.38s8.38,3.76,8.38,8.38
						S95.69,34.95,91.07,34.95z M91.07,24.89c-0.92,0-1.68,0.75-1.68,1.68c0,0.92,0.75,1.68,1.68,1.68s1.68-0.75,1.68-1.68
						C92.75,25.64,91.99,24.89,91.07,24.89z"/>
				</g>
			</g>
			<g>
				<polygon class="st3" points="41.59,41.66 36.56,41.66 36.56,28.57 20.63,28.57 20.63,23.54 41.59,23.54 				"/>
			</g>
			<g>
				<rect x="13.94" y="53.4" class="st3" width="19.27" height="5.03"/>
			</g>
			<g>
				<rect x="18.12" y="63.46" class="st3" width="16.77" height="5.03"/>
			</g>
			<g>
				<rect x="20.63" y="81.9" class="st3" width="24.31" height="5.03"/>
			</g>
			<g>
				<g>
					<circle class="st3" cx="19.79" cy="84.42" r="5.03"/>
				</g>
				<g>
					<path class="st4" d="M19.79,92.8c-4.62,0-8.38-3.76-8.38-8.38s3.76-8.38,8.38-8.38s8.38,3.76,8.38,8.38S24.42,92.8,19.79,92.8z
						 M19.79,82.74c-0.92,0-1.68,0.75-1.68,1.68c0,0.92,0.75,1.68,1.68,1.68s1.68-0.75,1.68-1.68
						C21.47,83.49,20.72,82.74,19.79,82.74z"/>
				</g>
			</g>
			<g>
				<g>
					<circle class="st3" cx="20.63" cy="26.57" r="5.03"/>
				</g>
				<g>
					<path class="st4" d="M20.63,34.95c-4.62,0-8.38-3.76-8.38-8.38s3.76-8.38,8.38-8.38s8.38,3.76,8.38,8.38
						S25.25,34.95,20.63,34.95z M20.63,24.89c-0.92,0-1.68,0.75-1.68,1.68c0,0.92,0.75,1.68,1.68,1.68s1.68-0.75,1.68-1.68
						C22.31,25.64,21.56,24.89,20.63,24.89z"/>
				</g>
			</g>
			<path class="st5" d="M82.34,42.26c-14.04-3.48-22.12-8.97-26.48-13.04v63.41C76.14,81.63,81.16,52.99,82.34,42.26z"/>
			<path class="st6" d="M55.86,29.22c-4.36,4.07-12.44,9.55-26.48,13.04c1.2,10.73,6.26,39.41,26.48,50.38c0,0,0,0,0,0L55.86,29.22
				C55.86,29.22,55.86,29.22,55.86,29.22z"/>
			<path class="st7" d="M55.86,95.47c-23.91-11.87-28.42-46.29-29.2-55.15c17.18-3.85,25.63-10.8,29.2-14.7c0,0,0,0,0,0v-4.07
				c0,0,0-0.01,0-0.01S49.15,33.28,24,38.31c0,0,1.68,46.12,31.86,59.95c0,0,0,0,0,0L55.86,95.47
				C55.86,95.47,55.86,95.47,55.86,95.47z"/>
			<path class="st8" d="M87.72,38.31c-25.02-5-31.78-16.64-31.86-16.76v4.07c3.57,3.9,12.02,10.85,29.19,14.7
				c-0.77,8.87-5.29,43.28-29.19,55.15v2.79C86.04,84.42,87.72,38.31,87.72,38.31z"/>
			<path class="st7" d="M26.66,40.31c0.77,8.87,5.29,43.28,29.2,55.15c0,0,0,0,0,0v-2.83c0,0,0,0,0,0
				C35.64,81.66,30.58,52.99,29.38,42.26c14.03-3.48,22.12-8.97,26.48-13.04c0,0,0,0,0,0v-3.6c0,0,0,0,0,0
				C52.29,29.51,43.84,36.47,26.66,40.31z"/>
			<path class="st8" d="M82.34,42.26c-1.18,10.73-6.2,39.38-26.48,50.37v2.83c23.91-11.88,28.42-46.29,29.19-55.15
				c-17.18-3.85-25.63-10.8-29.19-14.7v3.6C60.22,33.29,68.3,38.77,82.34,42.26z"/>
		</g>
		<g>
			<path class="st9" d="M56.32,42.38c3.09,0,5.61,2.52,5.61,5.61v7.3H50.71V48C50.71,44.9,53.23,42.38,56.32,42.38 M56.32,38.91
				L56.32,38.91c-5.02,0-9.09,4.07-9.09,9.09v10.78h18.18V48C65.41,42.98,61.34,38.91,56.32,38.91L56.32,38.91z"/>
			<path class="st10" d="M62.17,52.06c-0.08,0-0.16,0-0.24,0v3.23H50.71v-3.5c-0.71,0.27-1.46,0.42-2.2,0.42
				c-0.44,0-0.87-0.05-1.28-0.14v6.69h18.18v-7.62C64.44,51.73,63.29,52.01,62.17,52.06z"/>
			<path class="st11" d="M66.02,53.63v22.4H44.1c-0.9,0-1.63-0.73-1.63-1.63V55.26c0-0.9,0.73-1.63,1.63-1.63H66.02z"/>
			<path class="st9" d="M66.02,76.03l2.16-0.93c0.65-0.28,1.06-0.92,1.06-1.62v-17.3c0-0.7-0.42-1.34-1.06-1.62l-2.16-0.93V76.03z"
				/>
			<path class="st10" d="M66.02,53.63L66.02,53.63v22.4h0c0.69-0.3,1.14-0.98,1.14-1.74V55.37C67.17,54.62,66.72,53.93,66.02,53.63z
				"/>
			<g>
				<path class="st12" d="M55.91,63.7c0.48-0.44,0.78-1.06,0.78-1.76c0-1.32-1.07-2.39-2.39-2.39c-1.32,0-2.39,1.07-2.39,2.39
					c0,0.7,0.3,1.33,0.78,1.76c-0.29,1.84-0.94,5.97-0.78,6.12c0.2,0.2,2.39,0.29,2.39,0.29s2.19-0.09,2.39-0.29
					C56.84,69.67,56.2,65.54,55.91,63.7z"/>
				<path class="st9" d="M53.66,64.11c-0.48-0.44-0.78-1.06-0.78-1.76c0-1.32,1.07-2.39,2.39-2.39c0.14,0,0.28,0.01,0.42,0.04
					c-0.39-0.28-0.87-0.45-1.39-0.45c-1.32,0-2.39,1.07-2.39,2.39c0,0.7,0.3,1.33,0.78,1.76c-0.29,1.84-0.94,5.97-0.78,6.12
					c0.08,0.08,0.49,0.14,0.94,0.19C52.87,69.12,53.4,65.73,53.66,64.11z"/>
				<path class="st10" d="M52.36,65.83c0.36,0,0.69,0.07,1,0.19c0.11-0.72,0.22-1.4,0.3-1.91c0,0-0.01-0.01-0.01-0.01
					c-0.35-0.07-0.67-0.21-0.96-0.4c0,0,0,0,0,0C52.6,64.26,52.48,65.02,52.36,65.83z"/>
				<path class="st10" d="M53.76,60.29c0.09,0,0.18,0,0.27,0.01c0.36-0.22,0.78-0.35,1.23-0.35c0.14,0,0.28,0.01,0.42,0.04
					c-0.39-0.28-0.87-0.45-1.39-0.45c-1.06,0-1.96,0.69-2.27,1.65C52.42,60.67,53.05,60.33,53.76,60.29z"/>
			</g>
		</g>
	</g>
	<g>
		<path d="M138.06,62.17l4.53,0.43v1.29c0,4.13-3.2,7.26-7.33,7.26h-1.8c-4.13,0-7.33-3.13-7.33-7.26V52.54
			c0-4.13,3.2-7.26,7.33-7.26h1.8c4.13,0,7.33,3.13,7.33,7.26v1.29l-4.53,0.43v-1.73c0-1.65-1.22-2.95-2.88-2.95h-1.65
			c-1.65,0-2.88,1.29-2.88,2.95V63.9c0,1.65,1.22,2.95,2.88,2.95h1.65c1.65,0,2.88-1.29,2.88-2.95V62.17z"/>
		<path d="M163.94,54.23c0,3.16-1.87,5.72-4.6,6.76l5.18,9.81h-5l-4.78-9.31h-2.95v9.31h-4.53V45.64h9.35
			c4.13,0,7.33,3.13,7.33,7.26V54.23z M159.41,52.9c0-1.65-1.22-2.95-2.88-2.95h-4.74v7.23h4.74c1.65,0,2.88-1.29,2.88-2.95V52.9z"
			/>
		<path d="M170.52,45.64l4.06,9.17l4.06-9.17h4.92l-6.72,14.59V70.8h-4.53V60.23l-6.72-14.59H170.52z"/>
		<path d="M203.49,55.31c0,4.13-3.2,7.26-7.33,7.26h-4.82v8.23h-4.53V45.64h9.35c4.13,0,7.33,3.13,7.33,7.26V55.31z M198.96,52.9
			c0-1.65-1.22-2.95-2.88-2.95h-4.74v8.3h4.74c1.65,0,2.88-1.29,2.88-2.95V52.9z"/>
		<path d="M216.11,49.95V70.8h-4.53V49.95h-5.93v-4.31h16.39v4.31H216.11z"/>
		<path d="M241.74,63.9c0,4.13-3.2,7.26-7.33,7.26h-1.8c-4.13,0-7.33-3.13-7.33-7.26V52.54c0-4.13,3.2-7.26,7.33-7.26h1.8
			c4.13,0,7.33,3.13,7.33,7.26V63.9z M229.8,63.9c0,1.65,1.22,2.95,2.88,2.95h1.65c1.65,0,2.88-1.29,2.88-2.95V52.54
			c0-1.65-1.22-2.95-2.88-2.95h-1.65c-1.65,0-2.88,1.29-2.88,2.95V63.9z"/>
		<path d="M263.24,63.9c0,4.13-3.2,7.26-7.33,7.26h-1.8c-4.13,0-7.33-3.13-7.33-7.26V52.54c0-4.13,3.2-7.26,7.33-7.26h1.8
			c4.13,0,7.33,3.13,7.33,7.26V63.9z M251.3,63.9c0,1.65,1.22,2.95,2.88,2.95h1.65c1.65,0,2.88-1.29,2.88-2.95V52.54
			c0-1.65-1.22-2.95-2.88-2.95h-1.65c-1.65,0-2.88,1.29-2.88,2.95V63.9z"/>
		<path d="M268.63,70.8V45.64h16.07v4.31h-11.54v6.11h9.27v4.31h-9.27v6.11h11.54v4.31H268.63z"/>
		<path d="M288.47,52.54c0-4.13,3.2-7.26,7.33-7.26h1.26c4.13,0,7.33,3.13,7.33,7.26v0.83l-4.53,0.43v-1.26
			c0-1.65-1.22-2.95-2.88-2.95h-1.11c-1.65,0-2.88,1.29-2.88,2.95v0.22c0,5.07,11.58,1.47,11.58,10.82v0.32
			c0,4.13-3.2,7.26-7.33,7.26h-1.62c-4.13,0-7.33-3.13-7.33-7.26v-0.83l4.53-0.43v1.26c0,1.65,1.22,2.95,2.88,2.95h1.47
			c1.65,0,2.88-1.29,2.88-2.95v-0.32c0-5.36-11.58-1.11-11.58-10.82V52.54z"/>
		<path d="M321.01,62.17l4.53,0.43v1.29c0,4.13-3.2,7.26-7.33,7.26h-1.8c-4.13,0-7.33-3.13-7.33-7.26V52.54
			c0-4.13,3.2-7.26,7.33-7.26h1.8c4.13,0,7.33,3.13,7.33,7.26v1.29l-4.53,0.43v-1.73c0-1.65-1.22-2.95-2.88-2.95h-1.65
			c-1.65,0-2.88,1.29-2.88,2.95V63.9c0,1.65,1.22,2.95,2.88,2.95h1.65c1.65,0,2.88-1.29,2.88-2.95V62.17z"/>
		<path d="M346.89,54.23c0,3.16-1.87,5.72-4.6,6.76l5.18,9.81h-5l-4.78-9.31h-2.95v9.31h-4.53V45.64h9.35
			c4.13,0,7.33,3.13,7.33,7.26V54.23z M342.36,52.9c0-1.65-1.22-2.95-2.88-2.95h-4.74v7.23h4.74c1.65,0,2.88-1.29,2.88-2.95V52.9z"
			/>
		<path d="M367.89,63.9c0,4.13-3.2,7.26-7.33,7.26h-1.8c-4.13,0-7.33-3.13-7.33-7.26V52.54c0-4.13,3.2-7.26,7.33-7.26h1.8
			c4.13,0,7.33,3.13,7.33,7.26V63.9z M355.95,63.9c0,1.65,1.22,2.95,2.88,2.95h1.65c1.65,0,2.88-1.29,2.88-2.95V52.54
			c0-1.65-1.22-2.95-2.88-2.95h-1.65c-1.65,0-2.88,1.29-2.88,2.95V63.9z"/>
		<path d="M391.94,64.01l0.07,0.93l0.07-0.93l3.88-18.37h4.35l-5.43,25.16h-5.32l-3.74-17.15l-0.11-0.97l-0.11,0.97l-3.74,17.15
			h-5.32l-5.43-25.16h4.35l3.88,18.37l0.07,0.93l0.07-0.93l3.99-18.37h4.46L391.94,64.01z"/>
		<path class="st6" d="M403.55,65.66h5.14v5.14h-5.14V65.66z"/>
		<path class="st6" d="M425.66,62.17l4.53,0.43v1.29c0,4.13-3.2,7.26-7.33,7.26h-1.8c-4.13,0-7.33-3.13-7.33-7.26V52.54
			c0-4.13,3.2-7.26,7.33-7.26h1.8c4.13,0,7.33,3.13,7.33,7.26v1.29l-4.53,0.43v-1.73c0-1.65-1.22-2.95-2.88-2.95h-1.65
			c-1.65,0-2.88,1.29-2.88,2.95V63.9c0,1.65,1.22,2.95,2.88,2.95h1.65c1.65,0,2.88-1.29,2.88-2.95V62.17z"/>
		<path class="st6" d="M451.32,63.9c0,4.13-3.2,7.26-7.33,7.26h-1.8c-4.13,0-7.33-3.13-7.33-7.26V52.54c0-4.13,3.2-7.26,7.33-7.26
			h1.8c4.13,0,7.33,3.13,7.33,7.26V63.9z M439.39,63.9c0,1.65,1.22,2.95,2.88,2.95h1.65c1.65,0,2.88-1.29,2.88-2.95V52.54
			c0-1.65-1.22-2.95-2.88-2.95h-1.65c-1.65,0-2.88,1.29-2.88,2.95V63.9z"/>
		<path class="st6" d="M466.75,70.8l-5.36-18.51l-0.14-1.08V70.8h-4.53V45.64h6.61l5.54,19.16l0.07,0.93l0.07-0.93l5.54-19.16h6.61
			V70.8h-4.53V51.21l-0.14,1.08l-5.36,18.51H466.75z"/>
	</g>
</g>
</svg>
