<?xml version="1.0" encoding="utf-8"?>
<!-- Generator: Adobe Illustrator 25.2.0, SVG Export Plug-In . SVG Version: 6.00 Build 0)  -->
<svg version="1.1" id="Layer_1" xmlns="http://www.w3.org/2000/svg" xmlns:xlink="http://www.w3.org/1999/xlink" x="0px" y="0px"
	 viewBox="0 0 500 500" style="enable-background:new 0 0 500 500;" xml:space="preserve">
<style type="text/css">
	.st0{fill:url(#SVGID_1_);}
	.st1{fill:url(#SVGID_2_);}
	.st2{fill:url(#SVGID_3_);}
	.st3{fill:#FFFFFF;}
	.st4{fill:#FDE159;}
	.st5{fill:#3DC66A;}
	.st6{fill:#99E873;}
	.st7{fill:#62CB76;}
	.st8{fill:#449582;}
	.st9{fill:#CB3935;}
	.st10{opacity:0.5;fill:#CB3935;}
	.st11{fill:#EA524E;}
	.st12{fill:#1A1A1A;}
	.st13{fill:#002046;}
	.st14{opacity:0.4;clip-path:url(#SVGID_5_);}
	.st15{fill:url(#SVGID_6_);}
	.st16{fill:url(#SVGID_7_);}
	.st17{fill:url(#SVGID_8_);}
	.st18{fill:url(#SVGID_9_);}
</style>
<g>
	<g>
		<path d="M382.63,103.41c-26.94-3.62-65.14-13.42-108.91-38.37c-14.72-8.39-32.73-8.39-47.45,0
			c-43.77,24.95-81.96,34.76-108.91,38.37c-24.34,3.27-42.08,24.72-40.98,49.25c9.5,211.67,116.14,270.73,157.42,285.73
			c10.46,3.8,21.91,3.8,32.37,0c41.28-14.99,147.92-74.06,157.42-285.73C424.71,128.13,406.97,106.67,382.63,103.41z"/>
	</g>
	<g>
		<path class="st3" d="M250,462.96c-7.99,0-15.99-1.37-23.6-4.13c-48.31-17.54-161.73-82.39-171.73-305.19
			c-1.61-36.12,24.09-66.98,59.8-71.78c22.9-3.07,59.01-11.76,101.03-35.71c21.29-12.14,47.72-12.14,69,0
			c42.02,23.95,78.13,32.64,101.02,35.71h0.01c35.72,4.8,61.43,35.66,59.8,71.78c-10,222.81-123.43,287.65-171.73,305.19
			C265.99,461.59,257.99,462.96,250,462.96z M250,80.5c-4.48,0-8.96,1.13-12.95,3.41c-48.11,27.43-90.07,37.45-116.79,41.03
			c-13.01,1.76-22.74,13.5-22.14,26.74c8.82,196.62,103.03,251.71,143.12,266.26c5.66,2.08,11.9,2.08,17.53,0
			c40.09-14.55,134.3-69.64,143.12-266.26c0.59-13.23-9.13-24.98-22.14-26.74l0,0c-26.72-3.58-68.68-13.6-116.79-41.03
			C258.96,81.64,254.48,80.5,250,80.5z"/>
	</g>
</g>
</svg>
