<?xml version="1.0" encoding="utf-8"?>
<!-- Generator: Adobe Illustrator 25.2.0, SVG Export Plug-In . SVG Version: 6.00 Build 0)  -->
<svg version="1.1" id="Layer_1" xmlns="http://www.w3.org/2000/svg" xmlns:xlink="http://www.w3.org/1999/xlink" x="0px" y="0px"
	 viewBox="0 0 500 500" style="enable-background:new 0 0 500 500;" xml:space="preserve">
<style type="text/css">
	.st0{fill:url(#SVGID_1_);}
	.st1{fill:url(#SVGID_2_);}
	.st2{fill:url(#SVGID_3_);}
	.st3{fill:#FFFFFF;}
	.st4{fill:#FDE159;}
	.st5{fill:#3DC66A;}
	.st6{fill:#99E873;}
	.st7{fill:#62CB76;}
	.st8{fill:#449582;}
	.st9{fill:#CB3935;}
	.st10{opacity:0.5;fill:#CB3935;}
	.st11{fill:#EA524E;}
	.st12{fill:#1A1A1A;}
	.st13{fill:#002046;}
	.st14{opacity:0.4;clip-path:url(#SVGID_5_);}
	.st15{fill:url(#SVGID_6_);}
	.st16{fill:url(#SVGID_7_);}
	.st17{fill:url(#SVGID_8_);}
	.st18{fill:url(#SVGID_9_);}
</style>
<g>
	<path class="st3" d="M399.44,84.84c-30.36-4.08-73.4-15.12-122.71-43.24c-16.59-9.46-36.87-9.46-53.46,0
		c-49.31,28.11-92.35,39.16-122.71,43.24c-27.42,3.68-47.41,27.85-46.17,55.49c10.7,238.5,130.86,305.04,177.37,321.94
		c11.78,4.28,24.69,4.28,36.47,0c46.51-16.89,166.67-83.44,177.37-321.94C446.85,112.7,426.86,88.52,399.44,84.84z"/>
	<g>
		<g>
			<path d="M216.91,328.74c-5.49,0-10.97-2.01-15.26-6.04l-58.2-54.77c-8.96-8.44-9.38-22.52-0.96-31.48
				c8.42-8.94,22.51-9.38,31.47-0.96l43.21,40.67l109.15-99.13c9.11-8.25,23.19-7.57,31.45,1.51c8.27,9.1,7.59,23.19-1.51,31.45
				L231.88,322.96C227.63,326.81,222.27,328.74,216.91,328.74z"/>
		</g>
	</g>
</g>
</svg>
